<?xml version="1.0" standalone="no"?>
<!DOCTYPE svg PUBLIC "-//W3C//DTD SVG 20010904//EN"
 "http://www.w3.org/TR/2001/REC-SVG-20010904/DTD/svg10.dtd">
<svg version="1.0" xmlns="http://www.w3.org/2000/svg"
 width="1280.000000pt" height="1280.000000pt" viewBox="0 0 1280.000000 1280.000000"
 preserveAspectRatio="xMidYMid meet">
<metadata>
Created by potrace 1.15, written by Peter Selinger 2001-2017
</metadata>
<g transform="translate(0.000000,1280.000000) scale(0.100000,-0.100000)"
fill="#ffffff" stroke="none">
<path d="M5675 12790 c-169 -26 -319 -110 -416 -232 -45 -57 -112 -191 -124
-248 -8 -34 -8 -34 -35 44 -175 495 -846 578 -1138 141 -50 -73 -85 -161 -100
-246 l-8 -44 -18 78 c-91 404 -539 614 -915 430 -106 -52 -232 -178 -283 -283
-91 -185 -91 -385 0 -570 44 -89 166 -219 252 -268 57 -32 156 -66 225 -78
l40 -7 -70 -14 c-112 -22 -243 -92 -323 -172 -122 -122 -180 -253 -189 -421
-6 -113 16 -220 68 -326 38 -76 137 -187 212 -237 58 -39 160 -83 216 -93 35
-7 34 -8 -50 -34 -183 -57 -319 -178 -399 -353 -15 -34 -33 -89 -40 -122 l-12
-60 -19 73 c-29 116 -82 206 -173 297 -88 87 -151 126 -260 161 -69 21 -69 22
-35 29 55 11 190 80 242 124 141 118 223 279 234 460 11 181 -55 351 -185 481
-94 93 -180 143 -300 173 l-89 23 66 12 c178 34 360 176 441 343 53 111 74
209 67 319 -17 269 -189 494 -441 577 -69 22 -98 27 -196 27 -98 0 -127 -5
-196 -27 -141 -47 -262 -141 -344 -268 -40 -62 -90 -198 -90 -245 0 -13 -4
-24 -10 -24 -5 0 -10 11 -10 24 0 47 -50 183 -90 245 -82 127 -203 221 -344
268 -69 22 -98 27 -196 27 -98 0 -127 -5 -196 -27 -308 -102 -496 -425 -430
-737 41 -192 175 -366 346 -448 47 -23 115 -47 151 -54 l66 -12 -89 -23 c-120
-30 -206 -80 -300 -173 -131 -130 -196 -300 -185 -482 15 -240 159 -448 381
-548 33 -15 77 -31 96 -35 34 -8 34 -8 -42 -34 -253 -90 -420 -308 -435 -571
-18 -305 206 -597 500 -652 37 -7 67 -15 67 -18 0 -3 -29 -11 -65 -18 -298
-56 -520 -345 -502 -652 15 -260 176 -475 425 -568 90 -34 275 -42 371 -17
236 61 413 244 470 483 l18 77 7 -48 c33 -219 200 -417 418 -495 95 -34 271
-43 369 -18 224 56 411 242 468 466 l18 71 12 -58 c28 -127 105 -259 198 -343
65 -58 186 -123 258 -140 83 -19 83 -21 5 -41 -216 -56 -409 -256 -455 -475
-51 -239 31 -476 218 -632 69 -57 196 -118 279 -133 l68 -12 -90 -23 c-191
-48 -340 -167 -424 -338 -52 -105 -69 -191 -63 -311 9 -168 63 -291 182 -411
64 -64 98 -90 165 -123 47 -23 113 -47 147 -54 69 -14 92 -27 46 -27 -100 0
-252 -78 -358 -184 -91 -92 -143 -183 -174 -306 -11 -41 -20 -63 -20 -49 -1
14 -10 55 -22 90 -71 219 -247 384 -459 433 l-55 13 75 22 c260 78 440 307
457 581 7 110 -14 208 -67 319 -57 119 -170 231 -290 289 -47 23 -115 47 -151
54 l-66 12 89 23 c120 30 207 80 299 172 131 131 197 302 186 482 -15 237
-148 436 -362 539 -97 47 -159 60 -275 60 -107 0 -174 -13 -257 -50 -116 -53
-209 -132 -280 -239 -40 -59 -93 -199 -93 -243 0 -16 -4 -28 -10 -28 -5 0 -10
12 -10 28 0 44 -53 184 -93 243 -71 107 -164 186 -280 239 -83 37 -150 50
-257 50 -116 0 -178 -13 -275 -60 -214 -103 -347 -302 -362 -539 -11 -180 55
-351 186 -482 92 -92 179 -142 299 -172 l89 -23 -66 -12 c-178 -34 -360 -176
-441 -343 -52 -110 -73 -209 -67 -319 16 -272 197 -503 457 -581 l74 -22 -62
-17 c-109 -30 -190 -78 -278 -165 -251 -250 -259 -628 -18 -884 103 -109 227
-177 359 -197 l50 -7 -93 -23 c-127 -31 -209 -79 -307 -178 -196 -198 -239
-472 -114 -726 86 -173 252 -298 454 -339 60 -13 78 -19 55 -20 -58 -2 -181
-40 -250 -78 -37 -21 -98 -69 -141 -112 -156 -156 -220 -374 -173 -584 52
-228 210 -402 431 -476 34 -12 76 -21 93 -21 16 0 30 -4 30 -10 0 -5 -14 -10
-30 -10 -93 0 -258 -86 -355 -184 -247 -249 -245 -647 5 -896 249 -250 647
-252 896 -5 98 97 184 262 184 355 0 16 5 30 10 30 6 0 10 -14 10 -30 0 -93
86 -258 184 -355 249 -247 647 -245 896 5 250 249 252 647 5 896 -97 98 -262
184 -355 184 -16 0 -30 5 -30 10 0 6 14 10 30 10 42 0 143 35 210 72 244 135
372 419 315 693 -47 226 -232 423 -455 484 -41 12 -90 21 -110 22 -24 1 -12 5
39 15 155 28 263 83 366 188 81 81 146 200 167 304 l12 63 23 -88 c32 -120 81
-203 172 -293 87 -86 181 -139 301 -169 41 -11 65 -20 53 -20 -54 -2 -187 -55
-257 -102 -135 -90 -226 -218 -266 -375 -90 -350 141 -710 499 -778 l66 -13
-40 -7 c-65 -12 -135 -35 -205 -69 -90 -44 -223 -177 -268 -269 -99 -204 -94
-431 15 -618 127 -217 394 -347 639 -310 214 33 391 157 483 341 22 43 47 112
57 154 l18 77 14 -69 c7 -37 32 -106 54 -153 57 -119 169 -231 289 -288 108
-51 172 -66 284 -66 112 0 176 15 284 66 67 32 100 56 165 121 86 86 125 148
161 255 l22 65 17 -54 c33 -100 88 -191 161 -265 122 -124 272 -187 445 -188
117 -1 180 14 290 67 104 51 218 158 273 257 35 64 76 190 78 240 0 14 9 -10
18 -52 68 -301 321 -510 621 -512 117 -1 180 14 290 67 65 32 103 59 161 117
132 130 189 269 189 455 0 186 -57 325 -189 455 -89 88 -203 150 -316 173
l-70 14 75 17 c199 44 356 169 441 351 45 98 60 165 60 275 0 113 -15 178 -61
275 -91 188 -250 312 -458 355 -51 11 -74 18 -55 19 65 2 140 24 230 67 131
63 224 155 286 285 25 52 49 112 53 134 9 53 23 79 24 43 0 -41 45 -164 82
-224 51 -85 112 -148 194 -203 73 -49 204 -100 262 -102 15 0 -7 -10 -53 -23
-104 -29 -141 -46 -213 -95 -121 -82 -221 -225 -257 -366 -18 -71 -21 -233 -4
-301 17 -71 82 -202 128 -257 83 -99 197 -175 320 -211 30 -9 65 -16 78 -16
44 0 23 -16 -38 -27 -176 -33 -358 -176 -436 -343 -52 -110 -64 -161 -64 -280
0 -120 12 -171 64 -280 80 -171 254 -305 447 -346 261 -55 542 70 679 303 40
70 81 185 81 231 0 39 8 22 30 -62 72 -283 331 -486 620 -486 255 0 494 161
594 398 14 34 26 71 26 82 0 35 17 22 24 -19 3 -21 25 -76 48 -122 78 -157
238 -289 408 -335 87 -24 244 -24 325 0 235 70 412 256 460 481 15 75 25 93
25 48 0 -100 78 -252 185 -358 132 -133 265 -189 450 -189 111 1 182 17 280
66 386 191 475 705 175 1018 -92 96 -231 170 -350 186 l-55 8 80 18 c127 30
217 80 311 173 258 257 260 649 4 906 -90 91 -198 149 -330 178 -50 11 -72 20
-54 20 59 2 187 41 253 77 93 52 216 179 259 268 94 194 94 385 1 576 -82 165
-253 297 -432 335 -77 15 -96 25 -49 25 59 0 189 49 266 101 120 80 202 187
254 331 22 63 26 89 27 193 0 165 -32 262 -128 391 -81 107 -217 196 -352 230
l-67 17 73 21 c115 34 195 81 279 166 256 256 254 648 -4 905 -94 93 -184 143
-311 173 l-80 18 54 8 c77 10 173 49 252 102 215 143 324 423 261 672 -34 134
-75 205 -172 302 -64 65 -103 95 -160 122 -77 38 -178 67 -240 69 -19 0 5 7
54 15 369 57 616 423 526 780 -62 244 -253 428 -495 477 l-70 14 40 7 c141 25
250 81 351 181 206 205 251 490 117 748 -54 104 -163 211 -271 265 -46 23 -98
44 -117 48 -44 8 -45 20 -3 28 128 25 310 175 381 313 134 258 90 550 -113
754 -87 87 -178 139 -296 169 -85 22 -101 30 -61 30 54 0 187 51 261 101 173
116 271 288 283 499 14 264 -123 495 -362 610 -101 48 -168 64 -275 64 -174
-1 -320 -62 -446 -189 -65 -64 -90 -98 -122 -166 -23 -46 -47 -115 -55 -154
-16 -76 -13 -79 -38 35 -15 65 -72 177 -121 237 -63 75 -132 129 -223 173
-101 48 -168 64 -275 64 -174 -1 -320 -63 -445 -188 -85 -86 -125 -149 -160
-255 -19 -57 -23 -62 -29 -41 -96 342 -424 546 -760 475 -233 -49 -426 -237
-486 -471 -22 -84 -30 -101 -30 -62 0 46 -41 161 -81 231 -109 184 -302 301
-519 314 -110 6 -209 -15 -319 -67 -157 -75 -291 -239 -336 -410 -9 -32 -15
-100 -15 -160 0 -60 6 -128 15 -160 46 -172 179 -334 337 -410 47 -23 113 -47
147 -53 33 -6 61 -14 61 -18 0 -3 -20 -9 -45 -13 -108 -14 -244 -87 -333 -178
-85 -87 -144 -190 -171 -302 -17 -68 -15 -229 4 -301 37 -146 142 -291 269
-374 63 -42 182 -90 221 -91 31 0 5 -16 -49 -29 -206 -50 -389 -239 -445 -460
-19 -76 -22 -76 -36 -1 -11 57 -68 170 -119 237 -70 92 -194 180 -301 212 -22
7 -47 15 -55 18 -8 3 9 12 40 22 170 54 308 177 385 344 42 91 56 160 56 267
0 113 -15 178 -61 275 -87 180 -250 311 -435 350 -75 15 -93 25 -48 25 16 0
54 7 84 16 210 62 390 248 444 459 20 78 20 237 1 313 -59 224 -222 395 -439
460 -245 72 -522 -14 -678 -210 -56 -71 -115 -197 -130 -282 l-13 -68 -14 68
c-36 182 -146 337 -307 433 -105 63 -284 100 -400 81z m775 -892 c53 -122 165
-246 278 -306 70 -37 175 -72 215 -72 45 0 27 -10 -48 -25 -104 -22 -205 -78
-293 -160 -97 -91 -154 -187 -185 -313 l-24 -92 -12 68 c-15 82 -75 210 -131
277 -92 110 -224 192 -355 220 -75 15 -93 25 -48 25 87 0 247 77 340 163 104
98 171 218 196 350 l11 62 17 -72 c8 -39 26 -95 39 -125z m2540 108 c55 -214
214 -384 427 -455 34 -12 76 -21 93 -21 16 0 30 -4 30 -10 0 -5 -13 -10 -29
-10 -16 0 -56 -8 -89 -19 -210 -65 -377 -242 -432 -457 -22 -85 -30 -101 -30
-61 0 84 -80 252 -165 346 -81 89 -279 191 -371 191 -13 0 -24 5 -24 10 0 6
11 10 24 10 48 0 183 50 246 91 83 54 160 133 209 216 40 70 81 185 81 231 0
39 8 22 30 -62z m2546 -25 c35 -124 118 -250 216 -327 92 -72 235 -134 311
-134 46 0 27 -10 -50 -25 -89 -19 -216 -83 -286 -146 -77 -69 -151 -182 -182
-280 -14 -44 -25 -92 -25 -106 0 -42 -13 -17 -27 50 -45 222 -237 418 -469
477 -85 22 -101 30 -61 30 84 0 252 81 347 166 77 69 157 206 179 304 5 25 13
59 17 75 l8 30 3 -30 c2 -16 11 -55 19 -84z m-7650 -35 c48 -150 171 -293 311
-364 45 -22 117 -48 160 -58 l78 -17 -70 -14 c-184 -37 -363 -175 -443 -343
-22 -47 -47 -116 -54 -153 l-14 -69 -18 77 c-60 253 -254 441 -506 490 l-65
12 40 7 c274 48 478 242 536 511 l12 60 9 -44 c4 -25 15 -67 24 -95z m-2589
53 c33 -175 176 -357 343 -437 47 -23 115 -47 151 -54 l66 -12 -89 -23 c-120
-30 -206 -80 -300 -173 -61 -61 -86 -95 -118 -162 -23 -47 -47 -113 -53 -147
-6 -33 -14 -61 -17 -61 -3 0 -11 28 -17 61 -6 34 -30 100 -53 147 -32 67 -57
101 -118 162 -94 93 -180 143 -300 173 l-89 23 66 12 c179 34 360 176 441 344
23 47 47 113 53 147 6 33 14 61 17 61 3 0 11 -28 17 -61z m3867 -83 c69 -178
215 -313 405 -375 35 -12 78 -21 94 -21 45 0 27 -10 -48 -25 -210 -44 -412
-233 -471 -440 l-17 -59 -22 65 c-35 106 -75 169 -161 255 -64 65 -97 90 -165
122 -46 23 -115 47 -154 55 l-70 14 78 17 c100 23 217 81 289 146 77 69 153
184 181 276 14 49 24 68 28 56 4 -9 19 -48 33 -86z m5141 -56 c60 -119 163
-220 282 -279 69 -34 155 -61 196 -61 46 0 27 -10 -50 -25 -88 -19 -216 -83
-285 -145 -74 -66 -144 -171 -177 -265 l-28 -77 -22 69 c-34 103 -76 170 -160
253 -102 101 -257 180 -353 180 -15 0 -28 5 -28 10 0 6 13 10 28 10 84 0 239
74 332 157 89 81 147 176 195 318 5 16 11 8 24 -35 10 -30 30 -80 46 -110z
m-1320 -1116 c29 -136 118 -276 228 -360 73 -55 186 -110 246 -120 42 -7 40
-23 -2 -24 -30 0 -147 -50 -205 -87 -71 -45 -142 -117 -192 -194 -40 -62 -90
-198 -90 -245 0 -13 -4 -24 -10 -24 -5 0 -10 11 -10 24 0 39 -40 157 -71 213
-39 69 -98 139 -156 186 -59 47 -189 113 -243 122 -22 4 -40 10 -40 14 0 3 24
12 53 19 199 46 390 233 451 441 9 30 16 68 16 84 0 45 10 27 25 -49z m-5095
-90 c28 -83 106 -200 173 -259 68 -60 162 -113 250 -139 l70 -22 -54 -12 c-99
-23 -217 -90 -295 -167 -98 -97 -184 -262 -184 -355 0 -16 -4 -30 -10 -30 -5
0 -10 13 -10 29 0 16 -8 56 -19 89 -63 203 -236 372 -440 428 l-64 18 59 13
c108 25 201 79 294 173 99 99 150 189 178 316 l17 79 7 -47 c3 -27 16 -77 28
-114z m2580 -82 c75 -141 216 -264 354 -307 28 -9 58 -19 66 -22 8 -3 -9 -12
-40 -22 -162 -51 -306 -173 -379 -321 -23 -47 -47 -113 -54 -148 -6 -34 -14
-62 -17 -62 -3 0 -11 28 -17 62 -32 170 -169 345 -331 426 -46 23 -98 44 -117
48 -44 8 -45 20 -2 28 49 9 145 58 213 109 112 82 209 239 236 379 l12 65 22
-88 c13 -49 37 -115 54 -147z m5092 52 c34 -85 91 -166 161 -230 64 -57 192
-128 252 -140 45 -8 45 -20 1 -28 -54 -10 -165 -70 -228 -123 -110 -91 -195
-234 -219 -367 l-13 -68 -13 68 c-21 110 -93 245 -172 323 -76 75 -170 134
-253 159 -32 9 -58 20 -58 23 0 4 14 9 32 13 76 15 182 80 264 161 91 89 153
197 174 302 19 90 21 92 35 27 7 -34 24 -88 37 -120z m-10272 129 c0 -45 54
-185 93 -244 84 -127 198 -214 346 -264 l64 -22 -73 -23 c-216 -69 -393 -276
-426 -497 l-7 -48 -18 77 c-34 143 -118 277 -226 362 -64 51 -160 100 -228
117 l-48 12 65 22 c152 51 269 143 356 280 31 48 82 189 82 228 0 15 5 27 10
27 6 0 10 -12 10 -27z m3859 -80 c56 -185 227 -358 403 -411 32 -9 58 -20 58
-23 0 -4 -15 -10 -34 -13 -54 -10 -165 -70 -228 -123 -108 -90 -193 -231 -219
-363 l-12 -64 -13 63 c-36 175 -171 348 -334 428 -47 23 -107 47 -134 54 l-48
12 72 18 c90 23 195 79 265 142 75 66 150 182 178 273 12 40 23 74 24 74 0 0
10 -30 22 -67z m5114 4 c46 -155 168 -301 316 -375 45 -23 97 -44 116 -48 19
-3 35 -10 35 -14 0 -4 -16 -11 -35 -14 -19 -4 -71 -25 -117 -48 -101 -51 -216
-161 -265 -253 -35 -68 -73 -175 -74 -214 0 -14 -9 8 -20 49 -31 124 -83 214
-174 306 -65 65 -98 90 -166 122 -46 22 -101 44 -121 47 -50 9 -48 21 5 29 23
4 84 27 135 52 123 59 221 155 281 273 22 45 43 97 47 116 3 19 9 35 13 35 3
0 14 -28 24 -63z m1313 -1327 c63 -132 169 -242 298 -307 28 -14 91 -36 140
-48 60 -15 80 -24 59 -24 -62 -2 -191 -51 -267 -102 -138 -92 -236 -234 -274
-395 l-19 -79 -7 48 c-38 253 -247 468 -510 521 l-61 13 78 17 c190 43 349
167 435 341 30 61 61 163 63 206 0 13 8 -10 18 -51 9 -41 30 -104 47 -140z
m-10226 -25 c63 -130 163 -233 285 -293 67 -33 156 -62 192 -62 41 0 25 -17
-22 -24 -108 -14 -244 -87 -333 -178 -92 -94 -152 -204 -174 -321 l-12 -64
-22 88 c-13 49 -38 117 -56 151 -47 89 -174 214 -263 260 -77 40 -163 68 -207
68 -15 0 -28 5 -28 10 0 6 13 10 28 10 44 0 130 28 207 68 98 50 219 172 268
270 20 40 44 108 54 152 l18 79 13 -67 c7 -37 31 -103 52 -147z m5067 153 c7
-35 31 -101 54 -148 88 -179 268 -310 474 -346 l40 -7 -70 -14 c-174 -35 -336
-151 -425 -303 -39 -66 -80 -182 -80 -226 0 -13 -4 -24 -10 -24 -5 0 -10 11
-10 24 0 44 -41 160 -80 226 -90 154 -250 267 -425 303 l-70 14 40 7 c140 25
250 81 351 181 64 63 90 98 123 165 23 47 47 113 54 148 6 34 14 62 17 62 3 0
11 -28 17 -62z m1334 -148 c81 -165 251 -298 427 -336 37 -7 72 -14 77 -15 6
0 -21 -7 -60 -15 -252 -54 -448 -249 -499 -499 l-13 -60 -16 73 c-35 155 -140
305 -276 394 -74 49 -205 97 -264 99 -21 0 -1 9 59 24 105 27 166 55 251 119
109 82 205 235 233 371 l13 60 13 -65 c8 -36 32 -103 55 -150z m1226 148 c7
-35 31 -101 54 -148 33 -67 59 -102 123 -165 94 -94 188 -146 311 -172 l78
-17 -69 -13 c-106 -19 -237 -88 -316 -167 -37 -36 -82 -91 -101 -123 -38 -63
-87 -196 -87 -237 0 -14 -4 -26 -10 -26 -5 0 -10 12 -10 28 0 38 -51 179 -82
227 -101 158 -249 262 -423 299 -38 8 -65 15 -60 15 6 1 40 8 77 15 176 38
346 171 427 336 23 47 47 113 54 148 6 34 14 62 17 62 3 0 11 -28 17 -62z
m1284 -48 c73 -231 269 -402 514 -445 l40 -8 -70 -14 c-38 -8 -108 -33 -155
-55 -165 -79 -308 -260 -343 -436 l-13 -63 -18 76 c-28 119 -78 207 -171 301
-65 65 -98 90 -166 122 -46 23 -115 47 -154 55 l-70 14 40 8 c206 36 377 161
467 340 24 50 51 119 58 155 10 42 16 56 18 40 2 -14 12 -54 23 -90z m-6411
70 c0 -90 85 -257 179 -351 94 -94 261 -179 351 -179 16 0 30 -4 30 -10 0 -5
-14 -10 -30 -10 -42 0 -143 -35 -210 -72 -159 -88 -280 -252 -312 -423 -7 -36
-15 -65 -18 -65 -3 0 -11 30 -18 68 -33 174 -166 347 -332 430 -47 23 -113 48
-147 55 -69 14 -92 27 -46 27 95 0 251 78 349 175 100 99 184 261 184 356 0
16 5 29 10 29 6 0 10 -14 10 -30z m-1270 -37 c34 -164 151 -326 300 -413 66
-39 182 -80 226 -80 13 0 24 -4 24 -10 0 -5 -11 -10 -24 -10 -47 0 -181 -49
-239 -88 -152 -100 -252 -244 -289 -416 l-11 -50 -18 74 c-62 244 -251 427
-491 473 -32 7 -58 14 -58 17 0 3 26 10 58 17 239 46 432 231 490 470 9 40 18
73 19 73 1 0 7 -26 13 -57z m2554 6 c4 -23 22 -74 40 -113 88 -189 234 -309
440 -361 60 -15 80 -24 59 -24 -62 -2 -191 -51 -267 -102 -137 -91 -235 -232
-275 -396 -11 -43 -20 -66 -20 -51 -1 41 -46 164 -83 226 -46 78 -152 182
-229 225 -75 41 -175 77 -219 77 -16 0 -30 5 -30 10 0 6 14 10 30 10 93 0 258
86 355 184 81 82 149 205 168 305 6 33 14 58 18 55 3 -2 9 -22 13 -45z m6426
-1360 c81 -217 286 -376 525 -407 l60 -8 -66 -7 c-208 -23 -405 -161 -496
-347 -23 -47 -48 -116 -56 -155 -13 -62 -15 -66 -21 -40 -21 92 -62 200 -97
253 -106 162 -314 286 -489 293 -25 1 -19 4 25 10 226 33 405 158 500 352 26
53 50 121 57 160 l13 68 12 -58 c6 -32 21 -83 33 -114z m-5143 89 c7 -35 31
-101 54 -147 88 -179 271 -313 469 -344 l85 -13 -60 -7 c-279 -30 -519 -258
-561 -532 l-7 -50 -14 70 c-7 39 -33 111 -59 162 -94 194 -284 327 -499 350
l-60 7 89 13 c201 29 385 162 475 344 23 46 47 112 54 147 6 34 14 62 17 62 3
0 11 -28 17 -62z m1312 -106 c75 -189 259 -344 456 -383 l65 -13 -73 -18
c-229 -57 -416 -240 -472 -463 -19 -76 -19 -243 0 -315 56 -210 236 -394 447
-454 31 -9 69 -16 85 -17 24 0 25 -1 8 -9 -11 -4 -45 -13 -75 -20 -123 -27
-265 -119 -348 -225 -91 -115 -133 -241 -133 -393 0 -181 57 -317 187 -448 57
-58 90 -81 165 -117 52 -25 123 -51 159 -58 l64 -12 -69 -14 c-185 -37 -364
-175 -445 -344 -22 -47 -46 -114 -54 -149 -12 -59 -14 -62 -20 -35 -62 267
-236 453 -480 512 l-70 17 59 13 c180 41 340 172 425 348 46 97 61 162 61 275
0 107 -14 176 -56 267 -85 186 -245 315 -445 359 l-75 17 70 14 c230 46 432
239 490 468 21 80 20 237 0 316 -38 147 -135 284 -259 367 -88 59 -159 87
-265 106 -52 10 -65 14 -40 15 58 2 186 38 248 71 162 87 284 244 328 424 l17
69 12 -59 c7 -32 22 -83 33 -112z m1241 144 c0 -44 41 -160 80 -227 92 -156
274 -284 437 -306 l47 -6 -79 -22 c-161 -43 -288 -131 -373 -259 -54 -81 -89
-164 -99 -233 -6 -47 -23 -69 -23 -30 0 13 -7 48 -16 78 -36 123 -112 237
-211 320 -62 52 -191 114 -271 130 l-63 13 78 21 c169 46 298 140 387 285 37
60 86 193 86 234 0 14 5 26 10 26 6 0 10 -11 10 -24z m1336 -194 c28 -55 60
-98 114 -152 107 -107 215 -161 365 -184 l80 -12 -66 -7 c-138 -15 -271 -79
-375 -182 -77 -77 -125 -153 -159 -253 l-22 -65 -17 54 c-28 84 -82 181 -137
242 -88 99 -240 184 -364 203 l-50 7 69 18 c121 31 211 83 301 173 93 94 143
182 171 300 l18 77 17 -71 c9 -40 34 -106 55 -148z m-6456 180 c0 -97 79 -252
180 -353 86 -87 172 -139 279 -168 41 -11 76 -22 78 -24 2 -3 -16 -7 -39 -11
-24 -4 -83 -26 -133 -51 -185 -90 -308 -247 -349 -449 l-13 -61 -17 78 c-52
232 -249 434 -467 479 -32 7 -59 15 -59 18 0 4 25 12 55 19 196 44 388 232
449 440 9 30 16 67 16 83 0 15 5 28 10 28 6 0 10 -13 10 -28z m1288 -47 c39
-161 168 -322 323 -405 62 -33 189 -69 248 -71 27 -1 21 -4 -24 -10 -257 -37
-450 -194 -535 -435 l-26 -75 -18 58 c-50 162 -171 301 -328 377 -51 25 -111
48 -133 52 -64 11 -62 16 16 38 105 30 182 78 270 165 87 87 152 203 172 308
13 70 18 70 35 -2z m1312 -1377 c83 -194 268 -338 481 -376 l44 -8 -78 -18
c-238 -54 -419 -233 -481 -475 l-22 -88 -12 65 c-46 242 -244 443 -492 498
l-75 17 70 14 c250 50 462 271 501 520 l8 48 16 -72 c9 -39 27 -95 40 -125z
m2540 108 c40 -157 130 -285 266 -375 74 -50 207 -101 261 -101 42 0 17 -13
-50 -27 -141 -29 -302 -138 -386 -262 -37 -55 -84 -160 -95 -213 -18 -86 -18
-86 -33 -13 -8 39 -33 108 -56 155 -80 164 -253 298 -430 335 -38 7 -71 16
-73 18 -3 2 18 7 45 10 110 13 257 91 348 183 88 91 173 263 173 352 0 39 8
22 30 -62z m2546 -25 c34 -121 112 -240 211 -322 66 -55 195 -116 276 -131
l67 -13 -72 -17 c-231 -56 -410 -222 -477 -442 -12 -37 -21 -80 -21 -94 0 -41
-14 -16 -27 51 -7 34 -31 100 -54 147 -33 67 -59 102 -123 165 -94 93 -185
144 -311 173 l-80 18 54 8 c148 20 307 116 398 240 73 99 90 137 130 301 l7
30 3 -30 c2 -16 11 -54 19 -84z m-7613 -121 c51 -104 158 -218 257 -273 64
-35 190 -76 240 -78 14 0 -10 -9 -52 -18 -194 -44 -363 -173 -445 -341 -23
-47 -48 -116 -56 -155 l-14 -70 -17 75 c-42 189 -166 349 -340 437 -27 14 -89
35 -136 47 l-87 22 65 12 c86 17 213 77 284 136 104 85 183 217 214 356 l17
75 14 -70 c8 -38 33 -108 56 -155z m-2626 138 c20 -106 85 -222 172 -309 92
-92 179 -142 299 -172 l89 -23 -66 -12 c-179 -34 -360 -176 -441 -344 -23 -47
-47 -113 -53 -147 -6 -33 -14 -61 -17 -61 -3 0 -11 28 -17 61 -33 175 -176
357 -343 437 -47 23 -115 47 -151 54 l-66 12 89 23 c120 30 207 80 299 172 87
87 152 203 172 309 6 34 14 62 17 62 3 0 11 -28 17 -62z m3867 -82 c79 -204
265 -355 487 -394 l44 -8 -78 -18 c-221 -50 -405 -219 -469 -431 l-21 -70 -23
68 c-35 102 -80 175 -159 253 -85 85 -202 148 -323 175 -42 9 -66 18 -52 18
50 2 176 43 240 78 99 55 206 169 257 273 23 47 45 103 49 125 6 32 9 36 14
20 4 -11 20 -51 34 -89z m5144 -61 c83 -162 260 -295 435 -327 l67 -13 -72
-17 c-225 -55 -400 -212 -472 -424 l-22 -67 -23 69 c-34 105 -77 171 -165 259
-90 89 -170 135 -284 162 -37 9 -74 18 -82 21 -8 2 17 11 55 19 149 30 300
130 388 256 44 62 97 172 97 199 0 36 15 24 30 -24 9 -29 31 -80 48 -113z
m-1323 -1110 c37 -173 163 -338 327 -425 32 -17 100 -42 151 -55 54 -14 80
-24 62 -25 -87 -1 -246 -70 -331 -142 -108 -92 -193 -232 -217 -357 -6 -34
-14 -61 -17 -61 -3 0 -11 28 -17 61 -33 175 -176 357 -343 437 -47 23 -115 47
-152 54 l-68 13 81 17 c227 49 418 226 483 447 9 30 16 68 16 84 0 45 10 27
25 -48z m-2514 -177 c49 -93 183 -223 279 -270 41 -21 102 -44 135 -51 63 -15
63 -15 -25 -37 -142 -37 -295 -158 -377 -297 -31 -54 -73 -175 -73 -214 0 -16
-4 -29 -10 -29 -5 0 -10 13 -10 28 0 33 -34 140 -60 192 -78 154 -243 283
-416 326 l-68 18 59 13 c125 28 256 111 345 218 56 67 116 195 131 277 l12 68
23 -90 c13 -49 37 -118 55 -152z m-2571 60 c30 -80 113 -193 185 -251 74 -59
184 -114 264 -130 68 -14 89 -27 44 -27 -51 0 -164 -39 -236 -81 -83 -49 -162
-126 -216 -209 -41 -63 -91 -198 -91 -246 0 -47 -16 -23 -28 44 -45 236 -246
433 -497 487 -55 11 -57 13 -30 19 185 41 256 77 365 186 98 97 148 186 176
310 l17 75 13 -60 c6 -33 22 -86 34 -117z m7651 24 c27 -82 105 -198 174 -259
70 -63 175 -119 267 -142 66 -17 70 -20 43 -26 -174 -40 -315 -132 -406 -267
-50 -72 -75 -132 -99 -228 -10 -41 -19 -63 -19 -49 -2 45 -41 161 -79 229 -44
80 -157 195 -236 240 -33 18 -98 45 -144 60 l-85 26 57 13 c31 7 94 31 139 53
156 78 294 252 327 415 18 86 22 92 31 44 5 -25 18 -73 30 -109z m-10261 104
c0 -48 50 -183 91 -246 84 -131 207 -223 358 -270 l85 -27 -44 -7 c-68 -10
-218 -88 -282 -146 -99 -88 -175 -223 -202 -359 l-12 -63 -13 68 c-43 234
-235 437 -470 497 l-55 14 75 22 c144 44 275 142 358 271 41 63 91 198 91 246
0 13 5 24 10 24 6 0 10 -11 10 -24z m3859 -83 c60 -199 253 -379 456 -426 56
-14 58 -15 30 -22 -178 -42 -315 -132 -407 -267 -48 -72 -65 -110 -94 -213
-12 -44 -23 -70 -23 -58 -2 47 -53 183 -92 243 -97 150 -237 246 -414 285
l-60 12 40 7 c246 43 451 214 518 432 12 40 23 74 24 74 0 0 10 -30 22 -67z
m5118 -7 c28 -91 103 -207 178 -273 70 -63 175 -119 266 -142 l72 -18 -54 -13
c-30 -6 -92 -30 -139 -52 -70 -34 -100 -55 -170 -127 -94 -95 -139 -172 -169
-293 l-18 -69 -12 58 c-58 259 -268 461 -518 499 l-48 7 68 14 c95 19 164 47
238 94 118 77 220 208 257 331 9 32 19 58 22 58 3 0 15 -34 27 -74z m1329
-1374 c56 -101 172 -211 275 -261 46 -22 114 -46 151 -53 66 -12 82 -28 30
-28 -44 0 -184 -54 -243 -93 -150 -100 -259 -266 -285 -437 l-7 -45 -14 70
c-28 140 -109 275 -220 367 -68 56 -176 111 -253 128 -30 7 -64 16 -75 20 -17
8 -16 9 8 9 16 1 54 8 85 17 167 48 326 181 400 334 23 47 47 115 54 151 l12
66 23 -89 c12 -49 39 -120 59 -156z m-5186 206 c1 -79 75 -233 158 -328 85
-97 283 -200 384 -200 47 0 28 -10 -49 -25 -179 -38 -350 -170 -432 -335 -23
-47 -47 -113 -54 -148 -6 -34 -14 -62 -17 -62 -3 0 -11 28 -17 62 -7 35 -31
101 -54 148 -82 165 -253 297 -432 335 -77 15 -96 25 -49 25 103 0 298 102
384 200 83 95 157 249 158 328 0 17 5 32 10 32 6 0 10 -15 10 -32z m2560 8 c0
-92 102 -290 191 -371 94 -85 262 -165 346 -165 42 0 17 -13 -50 -27 -211 -43
-408 -228 -471 -442 -9 -30 -16 -67 -16 -83 0 -15 -4 -28 -10 -28 -5 0 -10 13
-10 28 0 97 -79 251 -180 353 -86 86 -200 150 -307 172 -67 14 -92 27 -50 27
48 0 183 49 246 90 79 51 150 122 201 201 40 62 90 198 90 245 0 13 5 24 10
24 6 0 10 -11 10 -24z m-7624 -197 c95 -186 258 -311 458 -351 l68 -14 -68
-13 c-139 -25 -291 -117 -378 -228 -65 -83 -94 -142 -120 -244 l-23 -91 -12
64 c-16 84 -89 230 -146 295 -86 98 -234 181 -369 206 l-58 11 68 13 c39 8
111 34 163 60 132 64 221 153 284 284 25 52 51 122 58 157 l12 64 23 -90 c12
-49 30 -105 40 -123z m6397 17 c50 -106 138 -202 252 -275 53 -34 189 -81 232
-81 42 0 17 -13 -50 -27 -225 -45 -435 -256 -480 -482 l-13 -64 -17 69 c-57
232 -237 416 -462 470 -39 9 -77 19 -85 22 -8 2 17 11 55 19 117 24 226 83
315 171 91 91 140 174 171 290 l22 83 19 -72 c10 -40 28 -95 41 -123z m2553
-3 c37 -76 104 -161 166 -212 89 -73 245 -141 321 -141 46 0 27 -10 -50 -25
-229 -48 -428 -243 -482 -475 l-17 -72 -13 58 c-18 80 -79 208 -130 271 -83
103 -226 190 -355 218 -76 15 -94 25 -49 25 100 0 252 78 359 185 91 90 142
179 171 298 l16 68 19 -73 c10 -40 30 -97 44 -125z m-7673 -5 c78 -181 276
-333 474 -364 l48 -8 -77 -17 c-244 -57 -427 -237 -485 -478 l-17 -72 -13 63
c-22 110 -85 222 -177 313 -94 94 -187 145 -312 172 l-78 17 63 13 c136 28
251 93 350 198 70 76 136 201 154 292 l12 63 20 -78 c12 -42 29 -94 38 -114z
m1234 131 c33 -175 176 -357 343 -437 47 -23 115 -47 151 -54 l66 -12 -89 -23
c-120 -30 -207 -80 -299 -172 -87 -87 -152 -203 -172 -309 -6 -34 -14 -62 -18
-62 -3 0 -9 20 -13 45 -8 61 -51 168 -93 232 -47 72 -156 172 -231 211 -34 18
-102 43 -151 56 l-88 22 66 12 c221 42 418 225 485 451 9 30 16 65 16 78 0 44
16 23 27 -38z m1284 -20 c30 -108 81 -193 169 -281 89 -88 198 -147 315 -171
39 -8 63 -17 55 -19 -8 -3 -46 -13 -85 -22 -226 -54 -408 -240 -462 -473 l-17
-72 -18 70 c-27 110 -82 204 -168 290 -91 92 -178 142 -298 172 l-89 23 66 12
c179 34 360 176 441 344 23 47 46 113 53 146 6 34 13 60 14 58 2 -2 13 -36 24
-77z m6449 -1397 c61 -122 156 -215 283 -276 90 -43 165 -65 230 -67 18 0 0
-7 -43 -14 -193 -35 -337 -127 -439 -281 -50 -74 -101 -207 -101 -261 0 -42
-13 -17 -27 50 -7 34 -31 100 -54 147 -86 173 -252 297 -454 340 -50 10 -76
19 -58 19 108 3 282 77 375 161 105 94 182 235 205 374 l7 41 17 -73 c9 -41
36 -113 59 -160z m-10241 3 c90 -189 249 -311 461 -355 58 -13 74 -18 50 -19
-58 -2 -181 -40 -250 -78 -90 -50 -206 -169 -252 -258 -40 -77 -68 -163 -68
-207 0 -15 -4 -28 -10 -28 -5 0 -10 13 -10 28 0 44 -28 130 -68 207 -46 89
-162 208 -252 258 -69 38 -192 76 -250 78 -24 0 -7 6 50 18 153 32 250 83 352
186 88 89 156 221 174 340 l7 50 14 -70 c8 -38 31 -106 52 -150z m5065 170 c8
-61 51 -168 93 -232 46 -70 148 -164 225 -207 67 -37 190 -75 248 -77 23 -1 9
-6 -43 -15 -150 -27 -262 -89 -366 -199 -78 -84 -127 -173 -155 -284 l-23 -91
-12 68 c-15 82 -75 210 -131 277 -97 116 -226 193 -378 225 -48 10 -73 19 -56
19 58 2 187 41 251 77 78 43 180 137 226 207 42 64 85 171 93 232 4 25 10 45
14 45 4 0 10 -20 14 -45z m2556 16 c0 -43 44 -165 82 -227 96 -159 255 -269
439 -302 l44 -9 -60 -12 c-238 -51 -441 -252 -490 -485 -15 -76 -25 -94 -25
-49 0 98 -78 252 -180 354 -90 91 -173 139 -295 173 -50 13 -80 25 -68 25 12
1 58 12 102 26 142 45 269 146 349 279 38 62 82 184 82 227 0 16 5 29 10 29 6
0 10 -13 10 -29z m1331 -181 c56 -114 169 -228 279 -282 75 -37 178 -67 235
-69 17 0 -10 -9 -60 -19 -231 -49 -422 -215 -488 -427 l-24 -75 -20 65 c-51
167 -170 306 -326 381 -51 25 -120 50 -154 57 l-62 13 68 17 c179 46 341 177
419 339 22 47 46 114 53 150 l12 64 13 -64 c8 -36 32 -103 55 -150z m-6451
163 c0 -45 53 -185 93 -244 95 -143 245 -247 405 -280 l61 -13 -70 -18 c-236
-60 -425 -256 -472 -493 l-14 -69 -12 64 c-7 36 -32 106 -56 155 -89 185 -247
308 -449 349 l-61 13 60 13 c162 34 324 148 410 289 37 61 85 194 85 235 0 14
5 26 10 26 6 0 10 -12 10 -27z m1284 -25 c4 -24 27 -85 52 -137 64 -130 156
-222 287 -285 89 -43 164 -65 230 -67 18 -1 -2 -7 -46 -15 -149 -27 -262 -89
-365 -198 -72 -77 -118 -156 -147 -250 l-21 -71 -13 50 c-27 107 -112 236
-208 316 -65 54 -194 117 -273 133 -66 13 -65 17 10 31 131 26 289 141 377
274 40 60 93 199 93 244 0 41 16 24 24 -25z m1336 -1436 c88 -166 246 -288
427 -328 l78 -17 -61 -13 c-253 -51 -447 -245 -505 -502 -9 -42 -18 -66 -18
-52 -2 50 -43 176 -78 240 -55 99 -169 206 -273 257 -47 23 -116 48 -155 56
l-70 14 75 17 c139 31 271 110 356 214 59 71 119 198 136 284 l12 65 22 -88
c13 -49 37 -115 54 -147z m2520 154 c55 -218 227 -398 439 -460 30 -9 67 -16
83 -16 15 0 28 -4 28 -10 0 -5 -13 -10 -28 -10 -16 0 -58 -9 -93 -21 -213 -69
-374 -240 -429 -455 -22 -84 -30 -101 -30 -62 0 46 -41 162 -82 232 -51 87
-137 173 -224 224 -69 41 -185 82 -230 82 -47 0 -23 16 44 28 235 45 438 251
485 494 6 31 13 56 14 54 2 -1 12 -37 23 -80z m-5068 -146 c58 -120 169 -231
288 -288 47 -22 117 -47 155 -55 l70 -14 -78 -17 c-161 -36 -305 -135 -396
-272 -51 -76 -100 -204 -102 -267 -1 -22 -7 -7 -20 48 -32 131 -81 217 -179
315 -98 99 -190 151 -311 176 -41 8 -75 17 -77 18 -1 2 21 6 50 10 125 17 280
104 373 208 58 66 130 212 146 298 l12 64 14 -69 c7 -39 32 -108 55 -155z
m7640 44 c58 -145 167 -259 313 -329 50 -24 119 -49 155 -56 l64 -12 -69 -14
c-39 -7 -108 -32 -155 -55 -153 -74 -285 -232 -334 -397 -9 -30 -16 -68 -16
-84 0 -45 -10 -27 -25 45 -52 249 -273 461 -515 494 l-55 8 80 18 c126 29 217
80 311 173 91 89 153 197 174 302 19 90 21 92 35 27 7 -34 24 -88 37 -120z
m-10264 91 c32 -171 153 -335 312 -423 67 -37 168 -72 210 -72 16 0 30 -4 30
-10 0 -5 -14 -10 -30 -10 -90 0 -257 -85 -351 -179 -94 -94 -179 -261 -179
-351 0 -16 -4 -30 -10 -30 -5 0 -10 14 -10 30 0 90 -85 257 -179 351 -94 94
-261 179 -351 179 -16 0 -30 5 -30 10 0 6 14 10 30 10 42 0 143 35 210 72 159
88 280 252 312 423 7 36 15 65 18 65 3 0 11 -29 18 -65z m9022 -171 c19 -33
66 -91 106 -131 57 -56 92 -81 166 -117 51 -24 122 -50 158 -57 l64 -12 -69
-14 c-218 -42 -418 -225 -486 -442 l-16 -55 -8 34 c-24 108 -103 240 -195 323
-93 83 -248 157 -332 157 -15 0 -28 5 -28 10 0 6 13 10 28 10 86 0 242 75 336
162 95 86 146 171 193 318 2 8 15 -17 27 -56 13 -39 38 -98 56 -130z m-5167
116 c59 -197 251 -368 464 -416 l78 -17 -61 -13 c-202 -41 -360 -164 -449
-349 -24 -49 -47 -105 -50 -124 -7 -34 -8 -33 -31 42 -30 94 -105 208 -180
276 -73 64 -192 125 -291 147 l-78 17 70 14 c39 8 108 33 155 55 150 72 293
240 331 391 14 56 19 53 42 -23z"/>
</g>
</svg>
